<?xml version="1.0" encoding="utf-8"?>
<!-- Generator: Adobe Illustrator 18.1.1, SVG Export Plug-In . SVG Version: 6.00 Build 0)  -->
<svg version="1.1" id="Layer_1" xmlns="http://www.w3.org/2000/svg" xmlns:xlink="http://www.w3.org/1999/xlink" x="0px" y="0px"
	 viewBox="0 0 474 82" enable-background="new 0 0 474 82" xml:space="preserve">
<g>
	<path fill="#FFFFFF" d="M99.6,43.5c1.9,7.9,3.6,10.8,8,10.8c4.1,0,7.3-2.6,7.3-6.2c0-8.4-16.7-5.2-16.7-15.3c0-5,4.1-8.4,10.3-8.4
		c3.4,0,6.2,0.7,8.5,1.7v8.5h-1l-1.6-4.9c-1.1-3.4-3.3-4.3-6.3-4.3c-4,0-6.8,2.5-6.8,5.6c0,3.2,2.4,4.1,8.5,6.2c6.7,2.4,9,4,9,8.7
		c0,5.4-4.8,9.4-11.7,9.4c-2.6,0-6.4-1.1-8.4-2.4v-9.4H99.6z"/>
	<polygon fill="#FFFFFF" points="119.5,31 128.9,31 128.9,31.7 125.9,31.7 131.1,42.2 136.9,31.7 134.2,31.7 134.2,31 140.2,31 
		140.2,31.7 138,31.7 131.7,43.1 131.7,53.8 134.5,53.8 134.5,54.6 124.9,54.6 124.9,53.8 127.8,53.8 127.8,43.8 121.6,31.7 
		119.5,31.7 	"/>
	<polygon fill="#FFFFFF" points="144.8,32.4 144.8,32.4 144.8,53.8 147.8,53.8 147.8,54.6 141.4,54.6 141.4,53.8 143.7,53.8 
		143.7,31.7 141.4,31.7 141.4,31 148.3,31 158.9,48 158.9,48 158.9,31.7 156.1,31.7 156.1,31 162.3,31 162.3,31.7 159.9,31.7 
		159.9,54.6 158.7,54.6 	"/>
	<path fill="#FFFFFF" d="M170.7,53.8h2.2c6,0,8.4-3.3,8.4-11c0-7.7-2.4-11-8.4-11h-2.2V53.8z M166.8,31.7h-2.2V31h8.6
		c8.4,0,12.6,5.5,12.6,11.8c0,6.3-4.2,11.8-12.6,11.8h-8.6v-0.8h2.2V31.7z"/>
	<polygon fill="#FFFFFF" points="189.4,54.6 189.4,53.8 191.5,53.8 191.5,31.7 189.4,31.7 189.4,31 197.6,31 197.6,31.7 195.4,31.7 
		195.4,53.8 197.6,53.8 197.6,54.6 	"/>
	<path fill="#FFFFFF" d="M218.2,38.6h-0.8c-2.2-6.5-2.9-7.4-5.7-7.4c-3.7,0-6.2,2.7-6.2,11.6c0,8.9,2.1,11.6,6.5,11.6
		c3,0,4-2,5.6-8.4h0.8v7.7c-2,1-4.2,1.4-6.4,1.4c-6.1,0-10.9-4.8-10.9-12.3c0-7.6,4.8-12.3,10.9-12.3c2.4,0,4.4,0.5,6.2,1.3V38.6z"
		/>
	<path fill="#FFFFFF" d="M226.3,44.4h7.1l-3.4-10h-0.1L226.3,44.4z M219.8,54.6v-0.8h2.1l8.4-23.1h2.3l7.9,23.1h1.4v0.8h-8v-0.8h2.7
		l-3-8.7h-7.6l-3.1,8.7h3.5v0.8H219.8z"/>
	<path fill="#FFFFFF" d="M244.4,53.8h2.7V31.7h-2.3c-1.6,0-2,0.3-3.5,6.8h-0.8V31h17.1v7.5h-0.8c-1.5-6.4-1.9-6.8-3.5-6.8H251v22.1
		h2.7v0.8h-9.3V53.8z"/>
	<path fill="#FFFFFF" d="M259.9,54.6v-0.8h2.2V31.7h-2.2V31h18.3v7.6h-0.8c-1.9-6.4-2.5-6.8-4.3-6.8h-7.1V42h2.8
		c1.8,0,2.7-1.1,3.4-4.7h0.8v10.2h-0.8c-0.7-3.7-1.6-4.7-3.4-4.7h-2.8v11.1h6.3c2.6,0,3.3-0.9,5.4-8h0.8v8.7H259.9z"/>
	<path fill="#FFFFFF" d="M287.9,53.8h2.2c6,0,8.4-3.3,8.4-11c0-7.7-2.4-11-8.4-11h-2.2V53.8z M284,31.7h-2.2V31h8.6
		c8.4,0,12.6,5.5,12.6,11.8c0,6.3-4.2,11.8-12.6,11.8h-8.6v-0.8h2.2V31.7z"/>
	<path fill="#FFFFFF" d="M316.9,54.6v-0.9h2.7V26h-2.7v-0.9h22.8v9.5h-1c-2.4-8-3.1-8.5-5.4-8.5h-8.9v12.8h3.5
		c2.2,0,3.3-1.3,4.2-5.9h1v12.7h-1c-0.9-4.6-2-5.9-4.2-5.9h-3.5v13.9h7.9c3.2,0,4.1-1.2,6.8-10h1v10.9H316.9z"/>
	<path fill="#FFFFFF" d="M353.9,54.4c4,0,5.9-2.7,5.9-11.6c0-8.9-1.9-11.6-5.9-11.6c-4,0-5.9,2.7-5.9,11.6
		C348,51.7,349.9,54.4,353.9,54.4z M357.8,59.4c-0.7,0.1-1.4,0.2-1.9,0.2c-2.7,0-3.8-1.2-3.8-3.9V55c-4.7-0.9-8.6-5.5-8.6-12.2
		c0-7.5,4.9-12.3,10.4-12.3c5.4,0,10.4,4.8,10.4,12.3c0,6.7-3.9,11.3-8.6,12.2v0.9c0,2.2,0.6,2.7,1.7,2.7h0.4V59.4z"/>
	<path fill="#FFFFFF" d="M374.5,31v0.8h-2.6v17.2c0,4.2,2.5,5.5,4.7,5.5c3.4,0,5.8-2.2,5.8-5.7V31.7h-3.2V31h6.4v0.8h-2.2v17
		c0,4-2.8,6.4-7,6.4c-5.8,0-8.5-2.3-8.5-7V31.7h-2.2V31H374.5z"/>
	<polygon fill="#FFFFFF" points="388.3,54.6 388.3,53.8 390.5,53.8 390.5,31.7 388.3,31.7 388.3,31 396.5,31 396.5,31.7 394.4,31.7 
		394.4,53.8 396.5,53.8 396.5,54.6 	"/>
	<path fill="#FFFFFF" d="M402.8,53.8h2.7V31.7h-2.3c-1.6,0-2,0.3-3.5,6.8h-0.8V31H416v7.5h-0.8c-1.5-6.4-1.9-6.8-3.5-6.8h-2.3v22.1
		h2.7v0.8h-9.3V53.8z"/>
	<polygon fill="#FFFFFF" points="418.3,54.6 418.3,53.8 420.5,53.8 420.5,31.7 418.3,31.7 418.3,31 426.5,31 426.5,31.7 424.4,31.7 
		424.4,53.8 426.5,53.8 426.5,54.6 	"/>
	<path fill="#FFFFFF" d="M429.6,54.6v-0.8h2.2V31.7h-2.2V31h18.3v7.6h-0.8c-1.9-6.4-2.5-6.8-4.3-6.8h-7.1V42h2.8
		c1.8,0,2.7-1.1,3.4-4.7h0.8v10.2h-0.8c-0.7-3.7-1.6-4.7-3.4-4.7h-2.8v11.1h6.3c2.6,0,3.3-0.9,5.4-8h0.8v8.7H429.6z"/>
	<path fill="#FFFFFF" d="M453.2,45.7c1.5,6.3,2.9,8.7,6.4,8.7c3.3,0,5.9-2,5.9-5c0-6.8-13.4-4.1-13.4-12.2c0-4,3.3-6.8,8.2-6.8
		c2.7,0,4.9,0.6,6.8,1.4v6.8h-0.8l-1.3-4c-0.9-2.7-2.7-3.5-5-3.5c-3.2,0-5.4,2-5.4,4.5c0,2.6,1.9,3.2,6.8,5c5.3,1.9,7.2,3.2,7.2,7
		c0,4.3-3.8,7.5-9.4,7.5c-2.1,0-5.1-0.9-6.7-1.9v-7.5H453.2z"/>
	<rect x="40.4" y="4.4" fill="#FFFFFF" width="5.7" height="9.9"/>
	
		<rect x="54.6" y="8.6" transform="matrix(-0.8673 -0.4978 0.4978 -0.8673 100.4946 53.8659)" fill="#FFFFFF" width="5.7" height="9.9"/>
	<polygon fill="#FFFFFF" points="70.6,18.8 73.9,23.4 65.9,29.1 62.6,24.5 	"/>
	<rect x="68.3" y="37.5" fill="#FFFFFF" width="9.9" height="5.7"/>
	<rect x="5.5" y="37.6" fill="#FFFFFF" width="9.9" height="5.7"/>
	
		<rect x="12.5" y="19" transform="matrix(-0.5024 0.8646 -0.8646 -0.5024 43.8028 22.6788)" fill="#FFFFFF" width="5.7" height="9.9"/>
	
		<rect x="24.9" y="8.1" transform="matrix(-0.8624 0.5062 -0.5062 -0.8624 58.2015 10.2192)" fill="#FFFFFF" width="5.7" height="9.9"/>
	<rect x="40.2" y="67.7" fill="#FFFFFF" width="5.7" height="9.9"/>
	
		<rect x="23.8" y="63.7" transform="matrix(0.8668 0.4986 -0.4986 0.8668 37.7635 -4.1601)" fill="#FFFFFF" width="5.7" height="9.9"/>
	<polygon fill="#FFFFFF" points="12.2,62.2 9.1,57.6 17.2,52 20.4,56.7 	"/>
	
		<rect x="66.1" y="51.6" transform="matrix(0.5021 -0.8648 0.8648 0.5021 -14.5574 87.7864)" fill="#FFFFFF" width="5.7" height="9.9"/>
	
		<rect x="54.6" y="63.3" transform="matrix(0.8628 -0.5055 0.5055 0.8628 -26.5937 38.3977)" fill="#FFFFFF" width="5.7" height="9.9"/>
	<polygon fill="#FFFFFF" points="24.8,26.5 28.6,22.2 42.7,34.7 38.9,39 	"/>
	
		<rect x="35.8" y="42.8" transform="matrix(-0.945 -0.3271 0.3271 -0.945 58.0718 114.1305)" fill="#FFFFFF" width="5.7" height="18.9"/>
</g>
</svg>
